<?xml version="1.0" encoding="UTF-8"?>
<svg id="Layer_2" data-name="Layer 2" xmlns="http://www.w3.org/2000/svg" viewBox="0 0 128 124.68">
  <defs>
    <style>
      .cls-1 {
        fill: #f2f4f9;
      }

      .cls-1, .cls-2 {
        stroke-width: 0px;
      }

      .cls-2 {
        fill: #18bcf2;
      }
    </style>
  </defs>
  <g id="Layer_1-2" data-name="Layer 1">
    <g>
      <path class="cls-2" d="M128,116.68c0,4.4-3.6,8-8,8H8c-4.4,0-8-3.6-8-8v-48c0-4.4,2.55-10.55,5.66-13.66L58.34,2.33c3.11-3.11,8.2-3.11,11.31,0l52.69,52.69c3.11,3.11,5.66,9.26,5.66,13.66v48Z"/>
      <path class="cls-1" d="M85.33,41.83h-42.67c-1.77,0-3.2,1.43-3.2,3.2v79.65h6.4V48.23h36.27v6.4h-26.67c-1.77,0-3.2,1.43-3.2,3.2v12.8c0,1.77,1.43,3.2,3.2,3.2h26.67v6.4h-26.67c-1.77,0-3.2,1.43-3.2,3.2v12.8c0,1.77,1.43,3.2,3.2,3.2h26.67v6.4h-26.67c-1.77,0-3.2,1.43-3.2,3.2s1.43,3.2,3.2,3.2h29.87c1.77,0,3.2-1.43,3.2-3.2v-12.8c0-1.77-1.43-3.2-3.2-3.2h-26.67v-6.4h26.67c1.77,0,3.2-1.43,3.2-3.2v-12.8c0-1.77-1.43-3.2-3.2-3.2h-26.67v-6.4h26.67c1.77,0,3.2-1.43,3.2-3.2v-12.8c0-1.77-1.43-3.2-3.2-3.2Z"/>
    </g>
  </g>
</svg>
